HIERARCHY
ROOT Hips
{
	OFFSET	0.00	0.00	0.00
	CHANNELS 6 Xposition Yposition Zposition Zrotation Xrotation Yrotation
	JOINT Spine
	{
		OFFSET	 0.00	0.01	 0.00
		CHANNELS 3 Zrotation Xrotation Yrotation
		JOINT Spine1
		{
			OFFSET	 0.00	 2.45913012437421	 0.00
			CHANNELS 3 Zrotation Xrotation Yrotation
            JOINT Neck
            {
                OFFSET	 0.00	 2.48462964506057	 0.00
                CHANNELS 3 Zrotation Xrotation Yrotation
                JOINT Head
                {
                    OFFSET	 0.00	 0.927524780924562	 0.00
                    CHANNELS 3 Zrotation Xrotation Yrotation
                    End Site 
                    {
                        OFFSET	 0.00	 1.14999962169752	 0.00
                    }
                }
            }
			JOINT LeftShoulder
			{
				OFFSET	 0.00	 2.48462964506057	 0.00
				CHANNELS 3 Zrotation Xrotation Yrotation
				JOINT LeftUpArm
				{
					OFFSET	 0.00	 1.24881979654096	 0.00
					CHANNELS 3 Zrotation Xrotation Yrotation
					JOINT LeftForeArm
					{
						OFFSET	 0.00	2.59758046908119	 0.00
						CHANNELS 3 Zrotation Xrotation Yrotation
						JOINT LeftHand
						{
							OFFSET	 0.00	2.45542024364365	 0.00
							CHANNELS 3 Zrotation Xrotation Yrotation
							JOINT LeftHandThumb 
							{
								OFFSET	 0.00	0.00	 0.00
								CHANNELS 3 Zrotation Xrotation Yrotation
								End Site
								{
									OFFSET	 0.00	0.00	1.00000003353624
								}
							}
							JOINT L_Wrist_End 
							{
								OFFSET	 0.00	0.99999967115358	 0.00
								CHANNELS 3 Zrotation Xrotation Yrotation
								End Site 
								{
									OFFSET	 0.00	 0.00	 0.00
								}
							}
						}
					}
				}
			}
			JOINT RightShoulder
			{
				OFFSET	 0.00	 2.48462964506057	 0.00
				CHANNELS 3 Zrotation Xrotation Yrotation
				JOINT RightUpArm
				{
					OFFSET	 0.00	 1.24881979654096	 0.00
					CHANNELS 3 Zrotation Xrotation Yrotation
					JOINT RightForeArm
					{
						OFFSET	 0.00	2.59758046908119	 0.00
						CHANNELS 3 Zrotation Xrotation Yrotation
						JOINT RightHand
						{
							OFFSET	 0.00	2.45542024364365	 0.00
							CHANNELS 3 Zrotation Xrotation Yrotation
							JOINT RightHandThumb 
							{
								OFFSET	 0.00	0.00	 0.00
								CHANNELS 3 Zrotation Xrotation Yrotation
								End Site
								{
									OFFSET	 0.00	0.00	1.00000003353624
								}
							}
							JOINT R_Wrist_End 
							{
								OFFSET	 0.00	0.99999967115358	 0.00
								CHANNELS 3 Zrotation Xrotation Yrotation
								End Site 
								{
									OFFSET	 0.00	 0.00	 0.00
								}
							}
						}
					}
				}
			}
		}
	}
	JOINT LeftUpLeg
	{
		OFFSET	 1.2719394002717	 0.00	 0.00
		CHANNELS 3 Zrotation Xrotation Yrotation
		JOINT LeftLowLeg
		{
			OFFSET	 0.00	-4.3429100912261	 0.00
			CHANNELS 3 Zrotation Xrotation Yrotation
			JOINT LeftFoot
			{
				OFFSET	 0.00	-4.48767017425826	 0.00
				CHANNELS 3 Zrotation Xrotation Yrotation
				JOINT LeftToeBase
                {
                    OFFSET	 0.00	0.00	 1.51507020887566
                    CHANNELS 3 Zrotation Xrotation Yrotation
                    End Site 
                    {
                        OFFSET	 0.00	0.00	 0.75000010571191
                    }
                }
			}
		}
	}
	JOINT RightUpLeg
	{
		OFFSET	 -1.2719393604653	 0.00	 0.00
		CHANNELS 3 Zrotation Xrotation Yrotation
		JOINT RightLowLeg
		{
			OFFSET	 0.00	-4.3429100912261	 0.00
			CHANNELS 3 Zrotation Xrotation Yrotation
			JOINT RightFoot
			{
				OFFSET	 0.00	-4.48767017425826	 0.00
				CHANNELS 3 Zrotation Xrotation Yrotation
				JOINT RightToeBase
                {
                    OFFSET	 0.00	0.00	 1.51507020887566
                    CHANNELS 3 Zrotation Xrotation Yrotation
                    End Site 
                    {
                        OFFSET	 0.00	0.00	 0.749999965609858
                    }
                }   
			}
		}
	}
}
MOTION 
Frames:	8 
Frame Time: 0.02 
  -5.864810180664063 -2.8760198974609374 9.175750122070312 176.653 83.3237 916.67 0.999691 -15.2533 -4.0276 4.31492 14.9824 -0.671825 -11.9889 45.5856 376.601 -114.265 -77.5558 -471.228 -103.6666 -3.61522 356.221 16.4345 45.9811 -3.92334 0.0 97.382 0.0 33.4638 -14.58 35.9668 0.0 0.0 0.0 0.0 0.0 0.0 113.1186 -9.70863 -358.122 31.3204 4.50187 -374.436 0.0 115.048 0.0 19.599 -19.4625 -16.8897 0.0 0.0 0.0 0.0 0.0 0.0 1.71702 -24.1201 -6.1796 0.0 19.3626 0.0 -22.893 3.3062 8.27361 0.0 -22.41548 0.0 9.06386 -8.02684 5.32358 0.0 19.9967 0.0 23.1343 -13.407801 -11.5574 0.0 -16.67666 0.0 
  -5.843610229492188 -2.887080078125 9.1802001953125 178.34 82.8067 915.511 0.54408 -15.1855 -4.38435 4.64941 14.6686 -0.597033 -14.4537 46.0463 378.596 -112.014 -76.7611 -469.952 -103.5314 -4.04767 355.329 19.1078 48.3836 -10.7595 0.0 101.42 0.0 35.9307 -13.7588 36.9015 0.0 0.0 0.0 0.0 0.0 0.0 113.037 -9.62296 -358.535 31.2245 5.16479 -374.51 0.0 115.255 0.0 19.9392 -19.826 -16.8128 0.0 0.0 0.0 0.0 0.0 0.0 1.51242 -24.5143 -6.13394 0.0 18.9813 0.0 -22.5222 3.8239002 8.14633 0.0 -22.58964 0.0 8.90156 -8.33429 4.70687 0.0 19.6967 0.0 23.3016 -13.360701 -11.3738 0.0 -16.68731 0.0 
  -5.822670288085938 -2.9025698852539064 9.18530029296875 179.602 82.2514 914.378 0.094777 -15.1679 -4.66411 4.93527 14.3954 -0.458327 -16.2153 46.6758 380.005 -111.491 -76.1994 -469.991 -103.3327 -4.70397 354.659 22.3813 50.4016 -19.1956 0.0 104.368 0.0 39.03 -13.3211 34.7498 0.0 0.0 0.0 0.0 0.0 0.0 113.2394 -9.53836 -359.11 30.8918 6.1124 -374.512 0.0 115.409 0.0 19.8488 -20.0793 -16.5971 0.0 0.0 0.0 0.0 0.0 0.0 1.44913 -24.7323 -5.69363 0.0 18.3998 0.0 -21.9528 4.285 8.0378 0.0 -22.601261 0.0 8.77049 -8.64499 4.5432 0.0 19.4178 0.0 23.424 -13.271 -11.2509 0.0 -16.71883 0.0 
  -5.80052001953125 -2.920469970703125 9.188779907226563 -179.732 81.6981 913.422 -0.377243 -15.1709 -4.83568 5.11856 14.2221 -0.225858 -17.2434 47.1486 380.993 -111.591 -76.0011 -470.476 -103.3923 -6.08355 355.199 28.4408 52.2073 -30.917 0.0 105.277 0.0 42.7362 -11.6103 32.0478 0.0 0.0 0.0 0.0 0.0 0.0 113.3085 -9.05078 -358.994 30.9597 6.26098 -374.967 0.0 115.564 0.0 19.8302 -20.1102 -16.4901 0.0 0.0 0.0 0.0 0.0 0.0 1.48373 -24.7742 -5.03358 0.0 17.7075 0.0 -21.3559 4.5874004 8.10408 0.0 -22.5727 0.0 8.62138 -8.91281 4.63849 0.0 19.1177 0.0 23.5303 -13.164801 -10.9996 0.0 -16.70084 0.0 
  -5.775689697265625 -2.9393301391601563 9.19260009765625 -179.526 81.2863 912.575 -0.718603 -14.9706 -4.86437 5.38299 14.0463 0.0960593 -18.2908 47.3587 382.022 -111.503 -75.7112 -471.021 -103.5923 -6.92672 354.853 33.1631 52.9219 -41.0176 0.0 105.485 0.0 46.581 -9.55881 30.8821 0.0 0.0 0.0 0.0 0.0 0.0 113.3812 -8.74351 -359.234 31.0568 6.82013 -375.164 0.0 115.736 0.0 19.7205 -20.2098 -15.9544 0.0 0.0 0.0 0.0 0.0 0.0 1.57336 -24.6269 -4.36764 0.0 17.088 0.0 -20.8312 4.7359 8.43339 0.0 -22.57022 0.0 8.49638 -9.09307 5.11968 0.0 18.955 0.0 23.6333 -13.0373 -10.7967 0.0 -16.71028 0.0 
  -5.74760986328125 -2.959389953613281 9.1956298828125 -179.654 80.9583 911.865 -0.893122 -14.7287 -4.66891 5.37773 13.9366 0.46364 -18.3546 47.4392 382.191 -111.995 -75.6887 -471.858 -103.6254 -7.88046 354.819 37.3755 53.1305 -51.5569 0.0 105.616 0.0 46.5081 -10.189 33.6501 0.0 0.0 0.0 0.0 0.0 0.0 113.5803 -8.43772 -359.588 31.2967 7.28048 -375.088 0.0 115.869 0.0 19.6155 -20.0695 -15.3257 0.0 0.0 0.0 0.0 0.0 0.0 1.60808 -24.4037 -4.13318 0.0 16.6175 0.0 -20.2736 4.6295996 9.1927 0.0 -22.51059 0.0 8.34771 -9.20542 5.67644 0.0 18.8515 0.0 23.7795 -12.921101 -10.4869 0.0 -16.71456 0.0 
  -5.71541015625 -2.982860107421875 9.199249877929688 179.703 80.5918 911.609 -1.07316 -14.6583 -4.47147 5.38004 13.9715 0.808584 -18.2265 47.3756 382.135 -112.712 -75.5866 -472.97 -104.0838 -8.5493 354.782 41.3821 52.6445 -60.8901 0.0 104.6 0.0 48.5849 -10.0658 31.229 0.0 0.0 0.0 0.0 0.0 0.0 113.7136 -8.07327 -359.879 31.7518 7.61629 -375.021 0.0 115.94 0.0 19.3897 -19.9357 -15.0088 0.0 0.0 0.0 0.0 0.0 0.0 1.48902 -24.2554 -4.23604 0.0 16.3486 0.0 -19.8787 4.3246 10.1441 0.0 -22.27478 0.0 8.12047 -9.36208 6.34705 0.0 18.8399 0.0 24.0678 -12.9027 -10.1667 0.0 -16.69705 0.0 
  -5.6778802490234375 -3.0076300048828126 9.203140258789062 178.787 80.2325 911.598 -1.13657 -14.6224 -4.18297 5.26447 14.0799 1.12687 -17.4854 47.5438 381.519 -113.443 -75.8348 -473.675 -104.3639 -8.96638 354.243 43.2372 52.0235 -68.2545 0.0 103.665 0.0 48.2715 -10.6997 32.0671 0.0 0.0 0.0 0.0 0.0 0.0 113.9314 -7.76063 -360.227 32.2387 7.92758 -374.812 0.0 115.988 0.0 19.2475 -19.8091 -14.7244 0.0 0.0 0.0 0.0 0.0 0.0 1.21481 -24.2187 -4.82871 0.0 16.4025 0.0 -19.3854 3.8486004 11.4798 0.0 -22.09675 0.0 7.8248 -9.54816 6.98867 0.0 18.9334 0.0 24.2952 -12.9188 -9.83833 0.0 -16.66742 0.0 
